<svg xmlns="http://www.w3.org/2000/svg" width="1200" height="630" viewBox="0 0 1200 630">
  <defs>
    <linearGradient id="bg" x1="0" y1="0" x2="1" y2="1">
      <stop offset="0" stop-color="#6366f1"/>
      <stop offset="1" stop-color="#4f46e5"/>
    </linearGradient>
    <linearGradient id="logo" x1="0" y1="0" x2="1" y2="1">
      <stop offset="0" stop-color="#ffffff"/>
      <stop offset="1" stop-color="#e0e7ff"/>
    </linearGradient>
  </defs>

  <rect width="1200" height="630" fill="url(#bg)"/>
  <circle cx="1050" cy="90" r="260" fill="#ffffff" opacity="0.06"/>
  <circle cx="120" cy="560" r="200" fill="#ffffff" opacity="0.05"/>

  <!-- Logo mark -->
  <g transform="translate(430 150)">
    <rect width="120" height="120" rx="30" fill="url(#logo)"/>
    <path d="M40 30h28a17 17 0 0 1 5 33 18 18 0 0 1-6 35H40V30Zm15 13v16h12a8 8 0 0 0 0-16H55Zm0 27v17h12a8.5 8.5 0 0 0 0-17H55Z" fill="#4f46e5"/>
    <text x="150" y="82" font-family="Inter, Arial, sans-serif" font-size="72" font-weight="800" fill="#ffffff">BizlyAI</text>
  </g>

  <text x="600" y="360" text-anchor="middle" font-family="Inter, Arial, sans-serif" font-size="46" font-weight="700" fill="#ffffff">AI Business Platform for Nigerian Businesses</text>
  <text x="600" y="422" text-anchor="middle" font-family="Inter, Arial, sans-serif" font-size="28" font-weight="500" fill="#c7d2fe">Leads · Invoices · Inventory · Expenses · Customers — all in one place</text>

  <g transform="translate(600 500)" font-family="Inter, Arial, sans-serif" font-size="22" font-weight="600" fill="#ffffff">
    <rect x="-260" y="-30" width="520" height="52" rx="26" fill="#ffffff" opacity="0.14"/>
    <text x="0" y="6" text-anchor="middle">bislyai.com  ·  Start free — no card required</text>
  </g>
</svg>
